<svg xmlns="http://www.w3.org/2000/svg" viewBox="0 0 560 280" fill="none">
  <defs>
    <linearGradient id="top-fe" x1="0" y1="0" x2="1" y2="1">
      <stop offset="0%" stop-color="#262628"/>
      <stop offset="100%" stop-color="#1e1e20"/>
    </linearGradient>
    <linearGradient id="left-fe" x1="0" y1="0" x2="0" y2="1">
      <stop offset="0%" stop-color="#18181a"/>
      <stop offset="100%" stop-color="#121214"/>
    </linearGradient>
    <linearGradient id="right-fe" x1="0" y1="0" x2="0" y2="1">
      <stop offset="0%" stop-color="#1e1e22"/>
      <stop offset="100%" stop-color="#161618"/>
    </linearGradient>
  </defs>
  <polygon points="80,120 280,40 480,120 280,200" fill="url(#top-fe)" stroke="#ffffff" stroke-opacity="0.12" stroke-width="1"/>
  <polygon points="80,120 80,168 280,248 280,200" fill="url(#left-fe)" stroke="#ffffff" stroke-opacity="0.06" stroke-width="0.5"/>
  <polygon points="280,200 280,248 480,168 480,120" fill="url(#right-fe)" stroke="#ffffff" stroke-opacity="0.06" stroke-width="0.5"/>
  <rect x="160" y="80" width="48" height="56" rx="3" fill="#ffffff" fill-opacity="0.06" stroke="#ffffff" stroke-opacity="0.15"/>
  <rect x="220" y="72" width="56" height="64" rx="3" fill="#ffffff" fill-opacity="0.09" stroke="#ffffff" stroke-opacity="0.2"/>
  <rect x="288" y="80" width="48" height="56" rx="3" fill="#ffffff" fill-opacity="0.06" stroke="#ffffff" stroke-opacity="0.15"/>
  <rect x="348" y="88" width="40" height="48" rx="3" fill="#ffffff" fill-opacity="0.05" stroke="#ffffff" stroke-opacity="0.12"/>
  <line x1="172" y1="96" x2="196" y2="96" stroke="#ffffff" stroke-opacity="0.25" stroke-width="2"/>
  <line x1="232" y1="88" x2="264" y2="88" stroke="#ffffff" stroke-opacity="0.3" stroke-width="2"/>
  <line x1="232" y1="100" x2="258" y2="100" stroke="#ffffff" stroke-opacity="0.18" stroke-width="2"/>
  <text x="280" y="155" text-anchor="middle" fill="#ffffff" fill-opacity="0.35" font-family="system-ui,sans-serif" font-size="11" font-weight="500" letter-spacing="0.15em">FUND ENTITIES</text>
</svg>
