<svg xmlns="http://www.w3.org/2000/svg" viewBox="0 0 560 280" fill="none">
  <defs>
    <linearGradient id="top-le" x1="0" y1="0" x2="1" y2="1">
      <stop offset="0%" stop-color="#2a2838"/>
      <stop offset="100%" stop-color="#201e2c"/>
    </linearGradient>
    <linearGradient id="left-le" x1="0" y1="0" x2="0" y2="1">
      <stop offset="0%" stop-color="#1a1824"/>
      <stop offset="100%" stop-color="#12101a"/>
    </linearGradient>
    <linearGradient id="right-le" x1="0" y1="0" x2="0" y2="1">
      <stop offset="0%" stop-color="#22202e"/>
      <stop offset="100%" stop-color="#18161e"/>
    </linearGradient>
  </defs>
  <polygon points="80,120 280,40 480,120 280,200" fill="url(#top-le)" stroke="#b8a8e8" stroke-opacity="0.16" stroke-width="1"/>
  <polygon points="80,120 80,168 280,248 280,200" fill="url(#left-le)" stroke="#ffffff" stroke-opacity="0.06" stroke-width="0.5"/>
  <polygon points="280,200 280,248 480,168 480,120" fill="url(#right-le)" stroke="#ffffff" stroke-opacity="0.06" stroke-width="0.5"/>
  <rect x="155" y="76" width="90" height="64" rx="4" fill="#b8a8e8" fill-opacity="0.1" stroke="#b8a8e8" stroke-opacity="0.22"/>
  <rect x="255" y="76" width="90" height="64" rx="4" fill="#b8a8e8" fill-opacity="0.14" stroke="#b8a8e8" stroke-opacity="0.26"/>
  <line x1="170" y1="92" x2="230" y2="92" stroke="#b8a8e8" stroke-opacity="0.35" stroke-width="2"/>
  <line x1="170" y1="104" x2="215" y2="104" stroke="#b8a8e8" stroke-opacity="0.22" stroke-width="2"/>
  <line x1="170" y1="116" x2="225" y2="116" stroke="#b8a8e8" stroke-opacity="0.18" stroke-width="2"/>
  <rect x="270" y="90" width="60" height="36" rx="3" fill="#b8a8e8" fill-opacity="0.2"/>
  <line x1="278" y1="100" x2="322" y2="100" stroke="#b8a8e8" stroke-opacity="0.4" stroke-width="1.5"/>
  <line x1="278" y1="110" x2="310" y2="110" stroke="#b8a8e8" stroke-opacity="0.25" stroke-width="1.5"/>
  <text x="280" y="155" text-anchor="middle" fill="#b8a8e8" fill-opacity="0.5" font-family="system-ui,sans-serif" font-size="11" font-weight="500" letter-spacing="0.15em">LEGAL ENGINEERING</text>
</svg>
